<svg xmlns="http://www.w3.org/2000/svg" height="79.939" width="73.972" xml:space="preserve" id="svg2" version="1.1"><defs id="defs6"><clipPath id="clipPath18" clipPathUnits="userSpaceOnUse"><path id="path16" d="M0 59.955h55.479V0H0z"/></clipPath></defs><g transform="matrix(1.33333 0 0 -1.33333 0 79.94)" id="g10"><g id="g12"><g clip-path="url(#clipPath18)" id="g14"><g transform="translate(53.079 35.27)" id="g20"><path id="path22" d="M0 0a.732.732 0 00-.731-.731h-2.031l-.003.001-.003-.001h-22.568l-.003.001-.003-.001h-22.571l-.003.001-.003-.001h-2.027a.733.733 0 00-.733.731v9.382c0 .397.335.732.733.732H-.731A.74.74 0 000 9.382zm-3.965-16.801H-24.14V-3.13h20.175zm-3.629-16.07H-24.14v13.67h20.175V-29.24a3.634 3.634 0 00-3.629-3.631m-39.122 3.631v10.039h20.177v-13.67h-16.546a3.635 3.635 0 00-3.631 3.631m20.177 12.439h-20.177V-3.13h20.177zm-14.791 36.28a5.354 5.354 0 007.248 2.157c3.524-1.909 5.999-6.596 7.129-9.122h-12.639c-2.26 1.519-3.059 4.524-1.738 6.965m24.734 2.157c1.256.68 2.701.83 4.071.423a5.307 5.307 0 003.175-2.58 5.31 5.31 0 00.424-4.071c-.358-1.204-1.128-2.202-2.159-2.894h-12.64c1.129 2.526 3.605 7.214 7.129 9.122m15.865-9.122h-6.96a7.794 7.794 0 011.066 2.21 7.699 7.699 0 01-.613 5.898 7.693 7.693 0 01-4.603 3.737 7.696 7.696 0 01-5.897-.612c-3.609-1.954-6.168-6.11-7.601-9.011-1.433 2.901-3.993 7.056-7.601 9.011-3.758 2.032-8.468.629-10.5-3.125-1.437-2.654-1.153-5.781.459-8.108h-6.965a3.136 3.136 0 01-3.133-3.132V.001a3.135 3.135 0 013.133-3.131h.83v-26.11a6.037 6.037 0 016.031-6.03h35.491a6.037 6.037 0 016.03 6.03v26.11h.834A3.133 3.133 0 012.4 0v9.382a3.135 3.135 0 01-3.131 3.132" fill="#FFF" fill-opacity="1" fill-rule="nonzero" stroke="none"/></g></g></g></g></svg>