<svg xmlns="http://www.w3.org/2000/svg" height="45.453" width="35.927" xml:space="preserve" id="svg2" version="1.1"><g transform="matrix(1.33333 0 0 -1.33333 0 45.453)" id="g10"><g transform="translate(13.473 34.09)" id="g12"><path id="path14" d="M0 0l-13.473-1.412v-24.662L.001-34.09l13.43 7.99.041.024v24.664L.147-.017zm-11.548-3.147L.001-1.935l11.547-1.212v-8.98h-.002L.022-5.334l-.001.104-.087-.05-.088.056v-.109l-11.394-6.785zm.109-10.475L-.068-6.788 11.45-13.5l-4.479-2.641-7.093 4.221-.014-1.414 5.904-3.513-.86-.508-5.03 2.993-.014-1.415 3.827-2.275-.782-.524-3.031 1.787-.014-1.413 1.853-1.09-1.8-1.081zm19.582-8.549l-.011 5.177 3.416 2.037v-10.022L0-31.85l-11.548 6.871v9.852l11.411-6.792.016-1.044-7.942 4.728-.015-1.416 7.979-4.795.019-1.076-7.974 4.74-.013-1.414 8.021-4.822.047-.024z" fill="#000" fill-opacity="1" fill-rule="nonzero" stroke="none"/></g></g></svg>