<svg xmlns="http://www.w3.org/2000/svg" height="26.567" width="26.607" xml:space="preserve" id="svg2" version="1.1"><defs id="defs6"><clipPath id="clipPath18" clipPathUnits="userSpaceOnUse"><path id="path16" d="M0 19.925h19.955V0H0z"/></clipPath></defs><g transform="matrix(1.33333 0 0 -1.33333 0 26.567)" id="g10"><g id="g12"><g clip-path="url(#clipPath18)" id="g14"><g transform="translate(17.906 10.52)" id="g20"><path id="path22" d="M0 0h-8.5v-1.2H0l-2.101-2.1.901-.9 3.099 3.1c.201.2.201.6 0 .9L-1.2 2.9l-.901-.9z"/></g><g transform="translate(8.105 .52)" id="g24"><path id="path26" d="M0 0v6.2c0 .3-.3.6-.6.6H-5c0-.7.6-1.2 1.2-1.2h2.5v-5H-5c-1-.1-1.8.7-1.9 1.7v14c0 1 .8 1.8 1.7 1.8h3.9v-5h-2.4c-.7 0-1.2-.6-1.2-1.2h4.4c.3 0 .6.3.6.6v6.3c-.1.3-.4.6-.7.6H-5c-1.6.1-3-1.2-3.1-2.9V2.6C-8.2.899-6.9-.5-5.2-.5h4.6c.3-.101.6.2.6.5"/></g></g></g></g></svg>