<svg xmlns="http://www.w3.org/2000/svg" height="21.012" width="40.004" xml:space="preserve" id="svg2" version="1.1"><defs id="defs6"><clipPath id="clipPath18" clipPathUnits="userSpaceOnUse"><path id="path16" d="M0 15.759h30.003V0H0z"/></clipPath></defs><g transform="matrix(1.33333 0 0 -1.33333 0 21.012)" id="g10"><g id="g12"><g clip-path="url(#clipPath18)" id="g14"><g transform="translate(18.631 4.84)" id="g20"><path id="path22" d="M0 0c.899 0 1.683-.786 2.511-1.618.497-.5 1.011-1.016 1.496-1.307.727-.439 1.316-.421 1.398-.412l.103.009 3.805.048c.171.011.412.072.537.135-.019.04-.049.094-.099.167-.449.718-1.388 1.66-2.686 2.718C5.881.703 5.264 1.205 5.2 1.984c-.066.805.493 1.439 1.608 2.703.279.318.603.685.966 1.109 1.559 1.821 1.957 2.641 2.058 2.956-.17.029-.647.021-.678.019l-4.361-.029c-.19-.001-.249-.034-.249-.036-.176-.414-.812-1.811-1.644-3.05-1.895-2.82-2.785-3.2-3.407-3.201-.204 0-.396.05-.569.149-1.003.568-.963 1.833-.934 2.756.005.149.01.295.01.432 0 .645.025 1.207.048 1.688.076 1.68.016 1.692-.379 1.776-.409.086-.705.147-1.856.16l-.693.004c-.624 0-1.343-.014-1.906-.098a1.75 1.75 0 00.259-.251c.588-.704.604-1.951.601-2.194.13-1.646.061-3.796-1.018-4.313a1.365 1.365 0 00-.597-.137c-.926 0-1.854.886-3.425 3.267a22.765 22.765 0 00-1.587 2.888.464.464 0 01-.075.093 1.168 1.168 0 01-.32.117l-4.001-.025c-.021-.001-.045-.002-.07-.005.591-1.189 3.426-6.592 6.519-9.418 2.74-2.503 5.826-2.63 6.417-2.63l1.852.004c.045.01.217.061.268.099-.018-.018-.01.053-.01.097-.003.266.012 2.596 1.578 3.034C-.269-.018-.136 0 0 0m5.308-4.84c-.387 0-1.171.082-2.076.632-.642.386-1.223.969-1.784 1.532C1.01-2.235.277-1.499.001-1.499c-.268-.074-.48-.921-.476-1.568.004-.114-.001-.775-.467-1.213-.426-.401-1.089-.486-1.217-.498l-1.926-.008c-.967 0-4.358.219-7.429 3.021-3.674 3.359-6.835 9.798-6.968 10.07-.197.462-.248 1.066.152 1.482.392.413 1.081.472 1.359.479l4.083.025.115-.009c.091-.014.567-.094.957-.349.388-.246.59-.651.626-.73.01-.021.649-1.432 1.475-2.683 1.312-1.991 1.896-2.456 2.103-2.562.188.417.277 1.699.187 2.87.001.493-.101 1.098-.252 1.278-.112.134-.426.253-.778.294l-.722.691c-.096.659.635 1.226 1.149 1.446.737.317 1.792.382 3.147.382l.71-.005c1.235-.012 1.622-.081 2.15-.191C-.32 10.362-.382 8.994-.455 7.411c-.021-.464-.046-1.001-.046-1.62 0-.152-.005-.312-.011-.479-.011-.381-.032-1.039.093-1.305.219.145.853.665 2.072 2.483.784 1.165 1.4 2.539 1.517 2.803l.001.001c.183.43.608.941 1.613.946l4.275.024c.011.003.171.016.377.016.979 0 1.596-.287 1.832-.854.268-.65.169-1.656-2.355-4.605-.37-.432-.697-.804-.982-1.127-.598-.678-1.216-1.379-1.237-1.595.053-.168.662-.664 1.252-1.145 1.531-1.247 2.529-2.264 3.033-3.073.522-.759.429-1.329.258-1.677-.424-.864-1.637-.973-1.877-.984l-3.79-.048a2.502 2.502 0 00-.262-.012" fill="#000" fill-opacity="1" fill-rule="nonzero" stroke="none"/></g></g></g></g></svg>