<svg xmlns="http://www.w3.org/2000/svg" height="31.333" width="170.4" xml:space="preserve" id="svg2" version="1.1"><defs id="defs6"><clipPath id="clipPath18" clipPathUnits="userSpaceOnUse"><path id="path16" d="M0 23.5h127.8V0H0z"/></clipPath></defs><g transform="matrix(1.33333 0 0 -1.33333 0 31.333)" id="g10"><g id="g12"><g clip-path="url(#clipPath18)" id="g14"><g transform="translate(1.6 2)" id="g20"><path id="path22" d="M0 0c-1 1.3-1.6 3.2-1.6 5.6v8.3c0 2.5.5 4.4 1.5 5.7 1.1 1.3 2.8 1.9 5.3 1.9 2.4 0 4.1-.6 5.1-1.7s1.5-2.8 1.5-4.9v-2H6.9v2.3c0 .9-.1 1.6-.3 2-.2.4-.6.8-1.4.8-.7 0-1.2-.2-1.4-.7-.2-.5-.3-1.3-.3-2.2V4.4c0-.9.1-1.6.4-2.1.2-.5.7-.7 1.4-.7s1.1.2 1.3.7c.2.5.3 1.2.3 2.1v2.4h4.9v-2c0-2.1-.5-3.8-1.5-5C9.3-1.4 7.6-2 5.2-2 2.8-1.9 1-1.3 0 0" fill="#111" fill-opacity="1" fill-rule="nonzero" stroke="none"/></g><g transform="translate(23.4 8.2)" id="g24"><path id="path26" d="M0 0l-1.2 8.9L-2.4 0zm-4.1 15h5.7L5.8-7.8H1.2L.4-3h-3.3l-.8-4.8h-4.7z" fill="#111" fill-opacity="1" fill-rule="nonzero" stroke="none"/></g><g transform="translate(32.7 19.4)" id="g28"><path id="path30" d="M0 0h-3.4v3.8H8.5V.1H5.1V-19H0z" fill="#111" fill-opacity="1" fill-rule="nonzero" stroke="none"/></g><g transform="translate(50.3 23.2)" id="g32"><path id="path34" d="M0 0h8.8v-2.4H3.1v-7.5h4.6v-2.3H3.1v-8.401h5.7V-22.9H-.1V0z" fill="#111" fill-opacity="1" fill-rule="nonzero" stroke="none"/></g><g transform="translate(61.7 23.2)" id="g36"><path id="path38" d="M0 0h2.2l6.5-15.101V0h2.6v-22.8h-2L2.7-7.2v-15.6H0z" fill="#111" fill-opacity="1" fill-rule="nonzero" stroke="none"/></g><g transform="translate(76 23.2)" id="g40"><path id="path42" d="M0 0h8.8v-2.4H3.1v-7.5h4.6v-2.3H3.1v-8.401h5.7V-22.9H0z" fill="#111" fill-opacity="1" fill-rule="nonzero" stroke="none"/></g><g transform="translate(91.8 13.4)" id="g44"><path id="path46" d="M0 0c1.4 0 2.3.3 2.9.8.6.5.9 1.5.9 3 0 .9-.1 1.7-.3 2.2-.2.5-.6.9-1.1 1.2-.5.3-1.299.4-2.2.4h-1.4V.1H0zm-4.399 9.8H.2c2.3 0 4-.5 5.1-1.4 1.1-.9 1.6-2.5 1.6-4.6C6.9.9 6-.9 4.101-1.5L7.3-12.9H4.2l-3 10.7h-2.5v-10.7h-3.2V9.8z" fill="#111" fill-opacity="1" fill-rule="nonzero" stroke="none"/></g><g transform="translate(102.7 2.1)" id="g48"><path id="path50" d="M0 0c-.9 1.301-1.4 3.2-1.4 5.801V13.4c0 1.8.2 3.201.5 4.3.4 1.1 1 2 1.9 2.6.899.6 2.1.9 3.7.9 2.1 0 3.6-.5 4.5-1.599.9-1.101 1.4-2.701 1.4-5V13.8h-3v.7c0 1.101-.1 1.9-.201 2.5-.099.601-.399 1-.799 1.3-.4.301-1 .5-1.9.5-.9 0-1.5-.199-2-.6-.5-.4-.7-.9-.801-1.599A18.895 18.895 0 011.7 13.9V5.4c0-1.7.199-3 .6-3.799C2.7.801 3.5.5 4.7.5c1.199 0 2 .4 2.4 1.2.4.8.7 2.101.7 4v1.601H4.899v2.3H10.7v-11.3h-2L8.399.9C7.7-1 6.3-2 4.3-2 2.399-2 .899-1.3 0 0" fill="#111" fill-opacity="1" fill-rule="nonzero" stroke="none"/></g><g transform="translate(119.8 8.4)" id="g52"><path id="path54" d="M0 0l-4.899 14.7h3l3.5-11L5 14.7h3L3.101 0v-8h-3v8z" fill="#111" fill-opacity="1" fill-rule="nonzero" stroke="none"/></g></g></g></g></svg>