<svg xmlns="http://www.w3.org/2000/svg" height="79.307" width="269.32" xml:space="preserve" id="svg2" version="1.1"><defs id="defs6"><clipPath id="clipPath18" clipPathUnits="userSpaceOnUse"><path id="path16" d="M0 59.48h201.99V0H0z"/></clipPath></defs><g transform="matrix(1.33333 0 0 -1.33333 0 79.307)" id="g10"><g id="g12"><g clip-path="url(#clipPath18)" id="g14"><g transform="translate(58.406 31.7)" id="g20"><path id="path22" d="M0 0c-.434-.434-1.349-.723-1.494.578a43.426 43.426 0 00-.193 2.217s-1.927 3.421-2.65 3.47c-.723.047-5.831-3.47-7.18-4.964-1.165-1.289-1.398-1.205-1.398-3.47 0-1.713.221-8.166.099-13.108l-8.146-2.168c-5.976-1.59-7.807-1.783-7.807-1.783l-1.012 5.831h-.002l-.04.007-.002.001-.035.005a2.223 2.223 0 01-.049.006l-2.57 13.185s-3.808 1.446-5.205 1.831c-1.398.386-2.265.675-4.048-.626-1.783-1.302-1.735-3.855-1.735-3.855s.434-.964.482-1.446c.048-.482-1.205-.434-2.024-.434s-.916 1.446-.289 3.133c.626 1.686 1.927 3.71 1.927 3.71s1.205 2.265 2.073 2.892c0 0 .144.337 1.253.24 1.108-.096 7.276-.433 7.276-.433l.054 2.275A144.285 144.285 0 00-12.471 8.43a58.913 58.913 0 00-.058-1.828s4.385 2.024 8.144 1.976c0 0 .434.048.771-.386s2.409-2.988 2.651-3.373C-.723 4.433.241 3.084.868 1.783.868 1.783.434.434 0 0m1.479 3.786c-5.453 13.049-20.451 19.209-33.5 13.756-13.05-5.451-19.209-20.45-13.757-33.5 3.586-8.584 11.303-14.186 19.879-15.463-.58 2.09-1.163 4.4-1.692 6.855 1.499-.991 3.089-1.805 4.77-2.555l-.021-.01s.119-2.157.28-4.566a25.445 25.445 0 015.347.479c-.043.157-.043.405.011.761.287 1.863 1.093 5.237 1.249 7.408a15.251 15.251 0 012.9 3.713l-.004-.037-.055-.433c-.554-4.265-1.704-8.814-2.403-10.071a5.776 5.776 0 00-.83-1.154c1.368.321 2.729.757 4.068 1.317C.771-24.262 6.93-9.264 1.479 3.786" fill="#fdc305" fill-opacity="1" fill-rule="nonzero" stroke="none"/></g><g transform="translate(56.455 37.807)" id="g24"><path id="path26" d="M0 0c.474-.598.887-1.129.987-1.289.241-.385 1.205-1.734 1.831-3.036 0 0-.433-1.349-.867-1.782-.434-.435-1.349-.724-1.494.578a42.078 42.078 0 00-.193 2.216S-1.664.109-2.386.157c-.723.048-5.831-3.47-7.18-4.964-1.165-1.289-1.398-1.204-1.398-3.469 0-1.502.17-6.65.129-11.226 1.81-.209 4.466-.71 5.268-1.882 0 0-.289 7.18 7.807 3.422 0 0 .289 9.782 11.469 7.276 0 0-5.668 6.959-13.709 10.686" fill="#f06351" fill-opacity="1" fill-rule="nonzero" stroke="none"/></g><g transform="translate(45.935 40.13)" id="g28"><path id="path30" d="M0 0c.146 8.514-1.407 16.532-1.407 16.532s-.145 1.301-.868.241-1.204-3.951-1.204-3.951c-7.47.433-12.819-.338-12.819-.338-.819 2.747-2.217 3.952-2.891 3.663-.675-.289-.723-3.325-.723-3.325l-.332-14.158C-13.552-.424-6.754.038 0 0" fill="#f06351" fill-opacity="1" fill-rule="nonzero" stroke="none"/></g><g transform="translate(45.35 12.364)" id="g32"><path id="path34" d="M0 0c.126 1.065.2 2.485.239 4.06 0 0-2.171-.579-8.146-2.168C-13.883.302-15.714.108-15.714.108l1.109-5.011c.022-.11.046-.218.069-.326 1.499-.992 3.089-1.805 4.77-2.555 4.372 2.164 6.87 4.134 6.87 4.134a1.421 1.421 0 00-.004-.063A15.27 15.27 0 010 0" fill="#e55645" fill-opacity="1" fill-rule="nonzero" stroke="none"/></g><g transform="translate(31.998 43.265)" id="g36"><path id="path38" d="M0 0c-.046.091 1.026-.684 1.412-.924.385-.242.612-.426.612-.594 0-.169-.265-.337-.627-.337-.361 0-.915.12-.963.265 0 0 .602.024.94.024h.289S.265-.53 0 0" fill="#000" fill-opacity="1" fill-rule="nonzero" stroke="none"/></g><g transform="translate(39.5 43.152)" id="g40"><path id="path42" d="M0 0s-1.051-1.279-1.09-1.338c-.039-.059-.167-.343.186-.294.352.049 1.115.225 1.223.284.107.059.07.197-.118.176-.205-.022-.685-.049-.988-.107L.057-.014S.084.105 0 0" fill="#000" fill-opacity="1" fill-rule="nonzero" stroke="none"/></g><g transform="translate(36.356 37.037)" id="g44"><path id="path46" d="M0 0s.813.353 1.093 1.012c.281.659.037.916-.442.982-.479.066-1.346.03-1.744-.341-.398-.37-.344-.732-.054-.957C-.858.47-.298.09 0 0" fill="#000" fill-opacity="1" fill-rule="nonzero" stroke="none"/></g><g transform="translate(35.95 35.781)" id="g48"><path id="path50" d="M0 0s-.181-.374-.46-.597a1.744 1.744 0 00-1.022-.388c-.641-.033-1.06.17-1.457.447-.204.142-.397.256-.535.444a.954.954 0 01-.357.254s.75-4.116 2.576-4.766C.57-5.257.896-3.854.954-3.469c.048.327 0 2.091-.824 3.237C.116.072.1-.132 0 0" fill="#f06351" fill-opacity="1" fill-rule="nonzero" stroke="none"/></g><g transform="translate(34.302 34.643)" id="g52"><path id="path54" d="M0 0h-.016c-1.297.011-2.3 1.366-2.342 1.424a.144.144 0 10.233.17c.01-.012.961-1.296 2.113-1.305H0c.586 0 1.136.335 1.634.994l.143.189.102-.214c.004-.007.375-.758.993-.797C3.37.43 3.929.874 4.494 1.745a.144.144 0 00.2.042.144.144 0 00.042-.2C4.101.609 3.467.134 2.852.173 2.287.209 1.907.669 1.73.94 1.209.316.627 0 0 0" fill="#000" fill-opacity="1" fill-rule="nonzero" stroke="none"/></g><g transform="translate(32.795 23.488)" id="g56"><path id="path58" d="M0 0a3.751 3.751 0 106.923 2.89A3.751 3.751 0 000 0" fill="#fdc305" fill-opacity="1" fill-rule="nonzero" stroke="none"/></g><g transform="translate(33.845 24.154)" id="g60"><path id="path62" d="M0 0l4.131 5.408-.806-4.019 1.967.821L1.16-3.198l.807 4.02zm7.388 3.823L4.255 2.514l1.15 5.636-7.502-9.762L1.037-.304l-1.15-5.635z" fill="#111" fill-opacity="1" fill-rule="nonzero" stroke="none"/></g><g transform="translate(31.4 26.305)" id="g64"><path id="path66" d="M0 0a1.124 1.124 0 102.075.866A1.124 1.124 0 000 0" fill="#111" fill-opacity="1" fill-rule="nonzero" stroke="none"/></g><g transform="translate(38.226 22.04)" id="g68"><path id="path70" d="M0 0a.794.794 0 101.465.612A.794.794 0 000 0" fill="#111" fill-opacity="1" fill-rule="nonzero" stroke="none"/></g><g transform="translate(39.601 23.948)" id="g72"><path id="path74" d="M0 0a.349.349 0 00.642.268A.348.348 0 000 0" fill="#111" fill-opacity="1" fill-rule="nonzero" stroke="none"/></g><g transform="translate(45.877 38.32)" id="g76"><path id="path78" d="M0 0s-2.554-2.254-5.084-5.212c-2.53-2.958-5.313-4.895-5.313-4.895-.217.528-1.626 1.514-1.626 1.514s-3.144 2.149-5.205 3.839c-1.184.971-2.355 2.175-3.138 3.024l-2.014.109c4.711-6.998 12.019-8.838 12.019-8.838.868.141 3.289 1.866 5.096 3.275C-3.458-5.775-.494-2.641.699-1.268A6.104 6.104 0 011.839.71C.726.326 0 0 0 0" fill="#f06351" fill-opacity="1" fill-rule="nonzero" stroke="none"/></g><g transform="translate(65.218 55.982)" id="g80"><path id="path82" d="M0 0l-8.455-9.444-1.218 1.998 8.148 10.944z" fill="#fdc305" fill-opacity="1" fill-rule="nonzero" stroke="none"/></g><g transform="translate(62.645 42.222)" id="g84"><path id="path86" d="M0 0l5.55 4.111-.789 3.734-5.402-4.812z" fill="#fdc305" fill-opacity="1" fill-rule="nonzero" stroke="none"/></g><g transform="translate(59.924 10.114)" id="g88"><path id="path90" d="M0 0l6.129-3.186L9.139-.84 2.445 1.904z" fill="#fdc305" fill-opacity="1" fill-rule="nonzero" stroke="none"/></g><g transform="translate(1.954 53.505)" id="g92"><path id="path94" d="M0 0l3.064 3.361 9.295-8.999-1.226-2.277z" fill="#fdc305" fill-opacity="1" fill-rule="nonzero" stroke="none"/></g><g transform="translate(7.382 43.197)" id="g96"><path id="path98" d="M0 0l-4.702 3.129-2.405-3.86 5.155-2.402z" fill="#fdc305" fill-opacity="1" fill-rule="nonzero" stroke="none"/></g><g transform="translate(13.907 6.929)" id="g100"><path id="path102" d="M0 0l-4.548-3.35 2.806-3.579 4.019 4.024z" fill="#fdc305" fill-opacity="1" fill-rule="nonzero" stroke="none"/></g><g transform="translate(25.926 31.507)" id="g104"><path id="path106" d="M0 0s-3.807 1.446-5.205 1.831c-1.397.386-2.265.675-4.047-.626-1.784-1.302-1.735-3.855-1.735-3.855s.433-.964.482-1.446c.047-.482-1.205-.434-2.024-.434-.82 0-.916 1.446-.29 3.133.627 1.686 1.928 3.71 1.928 3.71-5.445-2.843-15.035-9.397-15.035-9.397s2.939.289 8.192-.241 4.963-4.674 4.963-4.674 3.519.964 5.639 1.108c2.12.145 2.265-2.121 2.265-2.121l.53-3.854s.482.626 2.65 2.361c1.862 1.489 3.886 1.361 4.385 1.301 0 0 .001 0 0 0z" fill="#f06351" fill-opacity="1" fill-rule="nonzero" stroke="none"/></g><g transform="translate(85.657 17.446)" id="g108"><path id="path110" d="M0 0c-.932 1.199-1.398 2.929-1.398 5.19v7.507c0 2.312.462 4.06 1.385 5.242.924 1.182 2.507 1.773 4.751 1.773 2.139 0 3.654-.522 4.543-1.566.888-1.044 1.333-2.542 1.333-4.491v-1.76H6.472v1.941c0 .622-.031 1.122-.091 1.502a1.672 1.672 0 01-.466.945c-.249.249-.634.375-1.151.375-.777 0-1.278-.251-1.502-.751-.224-.501-.336-1.234-.336-2.2V4.181c0-.985.129-1.717.388-2.201.259-.483.742-.725 1.45-.725.725 0 1.19.246 1.398.738.206.492.31 1.221.31 2.188v2.045h4.142V4.491c0-2.002-.44-3.552-1.32-4.646-.881-1.097-2.399-1.644-4.556-1.644C2.511-1.799.933-1.2 0 0" fill="#111" fill-opacity="1" fill-rule="nonzero" stroke="none"/></g><g transform="translate(105.564 23.179)" id="g112"><path id="path114" d="M0 0l-1.268 8.439L-2.51 0zm-3.649 13.72h4.736L5.126-7.248H1.191L.415-2.64h-3.313l-.803-4.608h-4.013z" fill="#111" fill-opacity="1" fill-rule="nonzero" stroke="none"/></g><g transform="translate(113.718 33.741)" id="g116"><path id="path118" d="M0 0h-3.236v3.158H7.481V0H4.297v-17.81H0z" fill="#111" fill-opacity="1" fill-rule="nonzero" stroke="none"/></g><g transform="translate(129.612 36.9)" id="g120"><path id="path122" d="M0 0h8.128v-2.175H2.924v-6.937h4.22v-2.071h-4.22v-7.689H8.18v-2.096H0z" fill="#444" fill-opacity="1" fill-rule="nonzero" stroke="none"/></g><g transform="translate(140.148 36.9)" id="g124"><path id="path126" d="M0 0h1.993l5.953-13.927V0h2.434v-20.968H8.515L2.484-6.653v-14.315H0z" fill="#444" fill-opacity="1" fill-rule="nonzero" stroke="none"/></g><g transform="translate(153.815 36.9)" id="g128"><path id="path130" d="M0 0h8.128v-2.175H2.924v-6.937h4.22v-2.071h-4.22v-7.689H8.18v-2.096H0z" fill="#444" fill-opacity="1" fill-rule="nonzero" stroke="none"/></g><g transform="translate(168.39 27.865)" id="g132"><path id="path134" d="M0 0c1.26 0 2.161.25 2.705.751.543.5.816 1.406.816 2.718 0 .863-.096 1.539-.286 2.031-.19.493-.527.855-1.008 1.088-.484.233-1.166.349-2.045.349h-1.296V0zm-4.038 9.034h4.22c2.123 0 3.679-.436 4.672-1.307.992-.872 1.488-2.291 1.488-4.258 0-2.692-.863-4.323-2.59-4.893l2.977-10.51H3.908L1.164-2.097h-2.278v-9.837h-2.924z" fill="#444" fill-opacity="1" fill-rule="nonzero" stroke="none"/></g><g transform="translate(178.666 17.472)" id="g136"><path id="path138" d="M0 0c-.845 1.199-1.269 2.98-1.269 5.345v7.015c0 1.622.169 2.955.505 4 .337 1.043.914 1.846 1.736 2.407.818.561 1.945.841 3.378.841 1.932 0 3.326-.491 4.18-1.475.855-.984 1.282-2.529 1.282-4.633v-.777H7.067v.647c0 1-.06 1.773-.179 2.317-.122.543-.377.953-.765 1.229-.389.276-.963.415-1.722.415-.81 0-1.416-.186-1.811-.558-.398-.37-.653-.866-.764-1.487-.113-.621-.169-1.45-.169-2.486V5.034c0-1.604.195-2.757.582-3.456C2.629.88 3.375.53 4.479.53c1.086 0 1.834.379 2.24 1.139.405.759.608 1.977.608 3.649v1.451H4.661v2.07h5.306v-10.38H8.13L7.844.866C7.188-.911 5.945-1.8 4.116-1.8 2.219-1.8.847-1.2 0 0" fill="#444" fill-opacity="1" fill-rule="nonzero" stroke="none"/></g><g transform="translate(194.69 23.335)" id="g140"><path id="path142" d="M0 0l-4.529 13.564h2.717l3.21-10.121 3.16 10.121h2.743L2.796 0v-7.404H0z" fill="#444" fill-opacity="1" fill-rule="nonzero" stroke="none"/></g></g></g></g></svg>