<svg xmlns="http://www.w3.org/2000/svg" xmlns:xlink="http://www.w3.org/1999/xlink" xmlns:dc="http://purl.org/dc/elements/1.1/" xmlns:cc="http://creativecommons.org/ns#" xmlns:rdf="http://www.w3.org/1999/02/22-rdf-syntax-ns#" xmlns:svg="http://www.w3.org/2000/svg"><defs><clipPath id="clipPath18" clipPathUnits="userSpaceOnUse">
       <path id="path16" d="M 0,27.718 H 14.962 V 0 H 0 Z"/></clipPath><clipPath id="clipPath18" clipPathUnits="userSpaceOnUse">
       <path id="path16" d="M 0,21.334 H 21.769 V 0 H 0 Z"/></clipPath><clipPath id="a" clipPathUnits="userSpaceOnUse"><path d="M0 20.168h23.494V0H0z"/></clipPath></defs><symbol id="icon-fb" viewBox="0 0 19.948933 36.956798"><metadata id="metadata8"><rdf:RDF><cc:Work rdf:about=""><dc:format>image/svg+xml</dc:format><dc:type rdf:resource="http://purl.org/dc/dcmitype/StillImage"/></cc:Work></rdf:RDF></metadata><g transform="matrix(1.3333333,0,0,-1.3333333,0,36.957332)" id="g10"><g id="g12"><g clip-path="url(#clipPath18)" id="g14"><g transform="translate(7.8447,17.7427)" id="g20"><path id="path22" style="fill:#231f20;fill-opacity:1;fill-rule:nonzero;stroke:none" d="m 0,0 c 0.117,-0.254 0.254,-0.486 0.414,-0.698 0.079,-0.022 0.203,-0.003 0.205,-0.1 1.193,-0.056 2.199,0.069 3.096,0.299 0,-0.998 -0.271,-1.733 -0.518,-2.492 C 2.535,-3.036 1.73,-3.291 1.239,-3.189 0.963,-3.354 0.867,-3.695 0.619,-3.887 0.57,-4.329 0.761,-4.382 0.619,-4.684 0.418,-4.821 0.564,-5.295 0.414,-5.48 V -6.976 C 0.499,-7.257 0.269,-7.234 0.311,-7.473 v -3.488 c -0.085,-0.282 0.146,-0.258 0.103,-0.498 v -2.99 c 0.064,-0.27 -0.132,-0.791 0.103,-0.896 -0.071,-0.364 -0.413,0.02 -0.825,-0.1 -0.528,-0.122 -0.925,-0.369 -1.547,-0.4 0.117,0.352 0.32,0.622 0.31,1.096 0.049,0.381 -0.365,0.312 -0.516,0.499 0.194,0.643 0.563,1.117 0.722,1.792 0.197,0.515 0.714,1.298 0.31,1.794 -0.523,0.106 -0.522,-0.293 -0.826,-0.398 -0.023,-0.077 -0.002,-0.196 -0.103,-0.199 -0.023,-0.077 -0.003,-0.197 -0.103,-0.199 0.01,-0.121 -0.151,-0.062 0,0 0.023,0.078 0.002,0.197 0.103,0.199 0.023,0.077 0.002,0.197 0.103,0.199 v 0.299 c 0.368,0.575 0.669,1.214 0.826,1.993 0.191,0.28 0.283,0.656 0.412,0.997 0.156,0.262 0.34,0.869 0.104,1.195 -0.516,-0.033 -0.796,-0.295 -0.929,-0.697 -0.321,0.19 0.161,0.434 0.104,0.697 0.138,0.232 0.169,0.567 0.309,0.797 0.202,0.413 0.564,1.304 0,1.596 -0.438,0.023 -0.613,-0.207 -0.723,-0.498 -0.214,-0.192 -0.43,-0.383 -0.516,-0.698 -0.373,0.07 -0.142,0.726 -0.206,1.096 -0.067,0.52 0.122,0.9 0,1.196 -0.559,0.798 -2.026,0.105 -3.197,0.298 -0.108,0.307 -0.222,0.985 -0.103,1.196 1.045,0.088 2.478,-0.201 3.197,0.199 0.024,0.078 0.003,0.197 0.103,0.199 0.094,0.723 -0.271,1 -0.514,1.396 0.232,0.805 0.04,2.02 0.103,2.989 0.234,0.141 0.328,0.414 0.515,0.598 0.112,0.955 0.673,1.475 0.722,2.492 -0.274,-0.002 -0.608,0.055 -0.62,-0.199 -0.301,0.114 -0.381,-0.479 -0.514,-0.2 -0.113,0.541 0.246,0.626 0.308,0.997 0.599,0.418 1.212,0.821 1.857,1.196 C 1.124,8.316 4.031,8.521 5.469,7.874 5.52,7.257 5.182,7.02 5.262,6.377 H 3.716 C 2.624,6.137 1.729,5.706 0.725,5.38 0.484,5.314 0.448,5.049 0.209,4.982 0.173,4.585 -0.016,4.335 -0.102,3.986 -0.182,2.547 0.03,1.39 0,0 m 3.817,4.783 c 1.027,-0.03 1.994,0 2.681,0.3 C 6.889,5.9 7.054,6.937 7.117,8.072 6.927,8.086 7.055,8.409 6.91,8.471 6.881,8.673 6.632,8.666 6.602,8.869 6.324,9.034 6.145,9.291 5.879,9.467 5.152,9.628 4.438,9.802 3.715,9.965 2.866,9.921 1.82,10.068 1.135,9.866 -1.484,9.906 -2.862,8.746 -4.125,7.474 -4.147,7.396 -4.128,7.277 -4.229,7.275 -4.804,5.688 -4.354,3.654 -4.434,1.694 -4.335,1.258 -4.326,0.735 -4.229,0.299 -5.228,0.003 -6.441,-0.087 -7.632,-0.2 -7.949,-0.523 -7.81,-1.289 -7.838,-1.893 c 0.085,-0.583 0.278,-1.06 0.413,-1.595 0.211,-0.193 0.596,-0.396 0.825,-0.498 0.065,-0.029 0.072,-0.082 0.103,-0.099 0.506,-0.268 1.451,-0.008 2.268,-0.1 -0.137,-1.978 0.255,-3.915 0,-5.68 0.006,-0.327 0.294,-0.382 0.207,-0.798 -10e-4,-0.962 -0.067,-1.99 0.208,-2.69 -0.288,-0.455 -0.497,-0.982 -0.415,-1.794 0.122,-0.016 0.113,-0.157 0.104,-0.299 -0.074,-0.47 0.644,-0.175 0.516,-0.698 0.162,-0.456 -0.428,-0.184 -0.413,-0.498 v -0.897 c 0.53,-0.285 1.462,-0.181 2.268,-0.199 0.908,0.419 2.188,0.479 2.785,1.196 0.459,-0.235 0.916,0.014 1.239,0.2 -0.018,0.315 0.273,0.333 0.205,0.698 -0.004,0.328 -0.173,0.496 -0.103,0.896 v 2.889 c -0.206,2.293 -0.048,4.939 -0.309,7.176 0.888,0.105 1.917,0.075 2.579,0.398 0.357,0.452 0.377,1.231 0.515,1.895 0.177,0.225 0.221,0.583 0.206,0.996 0.191,0.213 0.069,0.729 0.104,1.096 C 5.326,0.297 5.299,1.001 4.642,1.097 3.758,1.332 2.599,0.501 1.65,0.798 1.699,1.932 1.357,3.14 1.65,4.186 2.397,4.362 3.098,4.581 3.817,4.783"/></g></g></g></g></symbol><symbol id="icon-insta" viewBox="0 0 29.024698 28.445333"><metadata id="metadata8"><rdf:RDF><cc:Work rdf:about=""><dc:format>image/svg+xml</dc:format><dc:type rdf:resource="http://purl.org/dc/dcmitype/StillImage"/></cc:Work></rdf:RDF></metadata><g transform="matrix(1.3333333,0,0,-1.3333333,0,28.445333)" id="g10"><g id="g12"><g clip-path="url(#clipPath18)" id="g14"><g transform="translate(13.1875,13.667)" id="g20"><path id="path22" style="fill:#231f20;fill-opacity:1;fill-rule:nonzero;stroke:none" d="M 0,0 C 0.211,-0.119 0.441,-0.217 0.606,-0.381 0.691,-0.6 0.85,-0.744 0.986,-0.91 1.044,-1.688 1.165,-2.402 1.138,-3.264 0.881,-3.362 0.699,-3.534 0.455,-3.645 c -0.78,0.006 -1.358,0.212 -1.897,0.457 -0.171,0.258 -0.356,0.504 -0.533,0.758 v 1.063 c 0.17,0.184 0.32,0.39 0.456,0.607 0.228,0.127 0.508,0.201 0.455,0.608 -0.039,0.061 -0.079,0.124 -0.076,0.228 0.159,-0.045 0.245,-0.159 0.379,-0.228 C -0.438,-0.171 -0.351,0.047 0,0 m 1.138,-3.796 c -0.234,0.057 -0.145,-0.208 -0.379,-0.152 0.069,0.159 0.118,0.338 0.228,0.455 0.134,-0.019 0.172,-0.13 0.151,-0.303 m -2.201,-2.581 c 0.034,0.109 0.066,-0.008 0.152,0 -0.019,-0.097 -0.151,-0.076 -0.152,0 m -0.759,2.885 c -0.04,0.038 0.054,0.096 0.076,0.076 0.039,-0.039 -0.055,-0.098 -0.076,-0.076 m -0.38,3.947 c -0.203,-0.258 0.041,-0.576 0.077,-0.836 -0.305,0.039 -0.573,0.888 -0.077,0.836 m -1.67,-2.125 c 0.015,0.086 0.075,0.042 0.075,0 -0.014,-0.087 -0.075,-0.043 -0.075,0 m -0.456,-2.051 c 0.041,0.117 0.079,0.006 0.076,-0.075 -0.04,-0.117 -0.079,-0.005 -0.076,0.075 m -0.075,0.305 c -0.114,0.063 -0.11,0.244 -0.153,0.379 0.256,0.078 0.118,-0.236 0.153,-0.379 m 3.415,4.327 C -1.211,1.143 -1.664,1.145 -1.975,1.29 -2.672,1.328 -3.197,1.197 -3.721,1.062 -4.024,0.911 -4.328,0.758 -4.631,0.608 -4.896,0.442 -5.075,0.19 -5.391,0.076 c -0.205,-0.224 -0.351,-0.51 -0.683,-0.607 -0.004,-0.223 -0.173,-0.282 -0.304,-0.379 -0.089,-0.115 -0.094,-0.312 -0.227,-0.381 -0.007,-0.12 0.036,-0.29 -0.076,-0.303 0.109,-1.511 0.291,-2.948 0.683,-4.177 0.287,-0.623 0.976,-0.845 1.442,-1.29 0.589,-0.296 1.328,-0.444 2.126,-0.531 0.278,0.052 0.553,0.106 0.911,0.076 1.209,0.209 2.098,0.737 2.81,1.442 0.1,0.281 0.252,0.508 0.455,0.683 -0.254,0.671 0.293,1.098 0.455,1.596 C 2.203,-2.451 2,-1.314 1.594,-0.38 1.338,0.199 0.674,0.372 0.228,0.759 0.169,0.776 0.077,0.762 0.076,0.835 -0.192,0.966 -0.656,1.068 -0.988,0.911 m 1.139,1.821 c -0.11,-0.046 0.007,-0.091 0,0 M -2.658,3.34 C -2.637,3.319 -2.543,3.377 -2.582,3.417 -2.603,3.438 -2.697,3.38 -2.658,3.34 m 0.533,0.38 c -0.316,0.073 -0.016,-0.228 0,0 M 0.151,2.732 C 0.685,2.781 0.9,3.148 1.366,3.264 1.65,3.562 2.15,3.645 2.354,4.023 1.794,4 1.588,3.624 1.138,3.492 0.854,3.196 0.387,3.079 0.151,2.732 M -2.125,3.72 c 0.346,0.134 0.613,0.347 0.834,0.607 C -1.639,4.193 -1.905,3.979 -2.125,3.72 m 0.834,0.607 c 0.064,-0.014 0.072,0.03 0.077,0.076 C -1.28,4.417 -1.286,4.374 -1.291,4.327 m 0.077,0.076 c 0.064,-0.014 0.07,0.031 0.075,0.076 -0.064,0.014 -0.072,-0.03 -0.075,-0.076 m 0.075,0.076 c 0.111,0.046 -0.007,0.092 0,0 m 0.683,0.608 c -0.11,-0.047 0.007,-0.092 0,0 M 0.228,4.251 C 0.954,4.409 1.408,4.842 1.974,5.162 1.537,5.144 1.382,4.842 0.986,4.783 0.771,4.567 0.387,4.523 0.228,4.251 m 1.746,0.911 c 0.11,0.047 -0.008,0.092 0,0 M 0.911,5.769 C 0.382,5.615 -0.107,5.421 -0.456,5.087 0.028,5.285 0.604,5.393 0.911,5.769 m 0,0 c 0.11,0.048 -0.009,0.092 0,0 M 6.756,2.05 C 6.117,2.17 5.523,2.334 4.858,2.429 4.931,2.762 5.657,2.439 5.846,2.656 6.23,2.879 6.141,3.577 6.149,4.175 6.182,4.522 6.264,4.818 6.226,5.238 5.824,6.189 4.442,5.659 3.34,5.693 3.115,4.976 2.87,3.894 3.036,3.037 3.205,2.547 4.061,2.744 4.555,2.581 4.415,2.249 3.866,2.523 3.567,2.505 3.271,2.588 2.86,2.557 2.581,2.656 0.296,2.579 -1.703,2.652 -3.948,2.505 -3.831,3.752 -3.885,4.97 -4.024,6.149 h 3.112 C -1.256,5.785 -1.824,5.643 -2.202,5.314 -2.643,5.07 -3.063,4.809 -3.341,4.403 c 0.249,-0.133 0.535,0.245 0.759,0.379 0.355,0.074 0.479,0.381 0.835,0.455 0.423,0.439 1.096,0.626 1.67,0.912 C 0.301,6.172 0.62,6.136 0.91,6.073 2.193,6.065 3.366,5.946 4.706,5.997 5.32,5.852 6.156,5.928 6.68,5.693 6.787,5.396 6.911,5.114 6.984,4.782 6.994,3.786 6.837,2.956 6.756,2.05 M 6.377,-9.11 c -0.109,-0.954 -0.158,-1.968 -0.379,-2.809 -2.89,-0.123 -6.019,-0.005 -8.883,-0.153 -0.199,-0.045 -0.273,0.031 -0.228,0.228 -0.253,0 -0.258,-0.247 -0.532,-0.228 0.202,0.336 0.438,0.898 0.152,1.291 -0.797,-0.013 -0.797,-0.822 -1.138,-1.291 -0.685,0.052 -1.137,-0.127 -1.823,-0.075 0.181,0.705 0.75,1.021 0.911,1.745 -0.395,0.549 -0.989,-0.138 -1.214,-0.455 -0.203,-0.481 -0.556,-0.81 -0.76,-1.29 h -0.986 c 0.238,0.468 0.489,0.925 0.759,1.366 0.171,0.511 0.625,0.741 0.682,1.367 -0.157,0.28 -0.419,0.029 -0.682,0 -0.123,-0.182 -0.273,-0.335 -0.38,-0.531 -0.232,-0.376 -0.501,-0.714 -0.684,-1.14 -0.18,-0.208 -0.335,-0.003 -0.53,-0.227 -0.389,-0.271 -0.58,-0.736 -0.988,-0.987 -0.174,0.06 0.039,0.357 0.153,0.38 0.046,0.181 -0.096,0.55 0.075,0.607 0.064,0.367 0.212,0.648 0.379,0.911 0.119,0.742 0.522,1.199 0.684,1.898 -0.559,-0.099 -0.674,-0.643 -0.987,-0.987 -0.213,-0.446 -0.542,-0.773 -0.683,-1.291 -0.174,0.131 -0.028,0.58 -0.076,0.836 0.122,0.586 0.298,1.119 0.38,1.746 0.132,0.22 0.172,0.535 0.228,0.834 0.168,0.209 0.046,0.61 -0.077,0.761 -0.226,-0.028 -0.374,-0.133 -0.455,-0.304 -0.192,0.032 -0.193,-0.506 -0.304,-0.304 -0.045,2.587 -0.451,4.813 -0.456,7.439 0.027,0.33 -0.182,0.424 -0.227,0.684 C -10.063,0.883 -8.571,0.82 -6.909,0.683 -6.998,0.544 -7.108,0.426 -7.213,0.304 -7.357,0.233 -7.439,0.131 -7.592,0 c -0.604,-1.653 -0.975,-3.984 -0.607,-6.15 0.228,-0.58 0.589,-1.03 0.986,-1.442 0.907,-0.485 1.635,-1.149 2.506,-1.671 1.701,-0.361 3.84,-0.369 5.541,0 0.236,0.12 0.484,0.226 0.685,0.38 1.364,1.242 2.752,2.459 2.96,4.86 v 1.367 c -0.197,1.597 -0.688,2.905 -1.747,3.643 0.331,0.22 1.099,-0.043 1.67,-0.076 0.223,-0.013 0.448,-0.014 0.684,0 0.408,0.024 0.928,0.055 1.443,0 C 6.673,0.725 6.643,0.367 6.757,0.151 6.695,-1.532 6.564,-3.148 6.604,-4.936 6.707,-5.39 6.731,-5.922 6.833,-6.377 6.743,-7.352 6.598,-8.269 6.377,-9.11 M -11.844,1.974 v 1.593 c 0.196,0.185 0.396,0.365 0.608,0.533 0.295,-0.49 0.178,-1.392 0.455,-1.898 -0.276,-0.156 -0.751,-0.11 -1.063,-0.228 m -0.076,3.264 c 0.226,0.205 0.451,0.41 0.684,0.608 -0.022,0.122 0.071,0.131 0.076,0.227 h 0.228 c 0.102,-0.381 -0.26,-0.296 -0.304,-0.531 0.021,-0.122 -0.073,-0.131 -0.076,-0.227 0.02,-0.336 0.122,-0.588 0.076,-0.988 -0.27,-0.008 -0.276,-0.28 -0.608,-0.227 0.024,0.428 -0.134,0.674 -0.076,1.138 m 0.456,0.759 c -0.034,-0.219 -0.326,-0.179 -0.379,-0.379 -0.215,0.17 0.083,0.468 0.379,0.379 m 0.986,0.076 c 0.029,-0.259 -0.438,-0.32 -0.378,0 z m 0.684,-3.72 c 0.148,0.03 0.11,-0.345 -0.076,-0.228 0.04,0.062 0.079,0.124 0.076,0.228 m 0.228,3.72 c 0.033,-0.158 -0.052,-0.2 -0.076,-0.304 -0.175,-0.023 -0.084,0.219 -0.228,0.229 0.024,0.103 0.19,0.063 0.304,0.075 m 0,-1.138 c -0.263,-0.054 -0.273,0.266 -0.153,0.379 0.263,0.054 0.272,-0.266 0.153,-0.379 m -0.228,-2.05 c 0.077,0.311 0.034,0.303 0.075,0.682 0.229,-0.012 0.261,-0.769 -0.075,-0.682 m 0.152,0.987 c -0.204,-0.021 -0.216,0.534 -0.077,0.607 0.328,-0.006 0.249,-0.5 0.077,-0.607 m 0.532,0 c 0.006,0.108 0.012,0.214 -0.077,0.228 -0.072,0.733 0.13,1.415 0,1.973 0.25,0.155 0.769,0.042 1.139,0.077 V 5.011 C -8.136,4.947 -8.251,4.91 -8.427,4.935 -8.481,4.654 -8.103,4.803 -8.048,4.631 -8.04,3.778 -8.104,2.854 -7.896,2.202 -8.461,2.261 -8.802,2.095 -9.338,2.126 -9.241,2.738 -9.356,3.561 -8.807,3.72 -8.818,3.861 -9.064,3.767 -9.11,3.872 m 2.353,-1.216 c 0.175,0.025 0.084,-0.218 0.228,-0.227 -0.009,-0.193 -0.284,-0.179 -0.38,-0.076 0.039,0.112 0.113,0.192 0.152,0.303 m 0.152,0.229 C -6.663,2.746 -6.687,2.93 -6.681,3.037 -6.623,3.175 -6.6,2.991 -6.605,2.885 m 0,1.366 c -0.132,0.07 -0.168,0.237 -0.152,0.456 0.132,-0.07 0.168,-0.238 0.152,-0.456 m -0.152,1.822 c 0.089,0.013 0.134,-0.016 0.152,-0.076 0.179,-0.253 0.009,-0.683 -0.076,-0.911 -0.174,0.179 -0.027,0.682 -0.076,0.987 m 0.683,-1.594 c -0.117,0.263 -0.067,0.692 -0.075,1.063 -0.007,0.284 0.277,0.278 0.303,0.531 -0.003,0.074 -0.092,0.059 -0.152,0.076 0.127,0.146 0.701,0.097 0.835,0 0.132,-0.537 -0.355,-0.455 -0.531,-0.683 0.01,-0.168 0.322,-0.032 0.456,-0.076 0.029,-0.854 -0.059,-1.496 0,-2.202 H -5.694 C -5.701,2.954 -5.466,2.962 -5.238,2.96 -5.297,2.674 -5.146,2.597 -5.163,2.353 -5.389,2.2 -5.879,2.31 -6.225,2.277 c -0.103,0.594 0.236,1.375 0.151,2.202 m 1.671,-2.733 c 0.757,0.153 1.48,0.341 2.428,0.304 0.71,-0.075 1.287,-0.282 1.898,-0.455 C 0.039,1.411 -0.32,1.048 0.076,0.911 V 0.835 C 0.135,0.818 0.226,0.833 0.228,0.759 0.673,0.724 1.021,0.592 1.291,0.38 1.741,0.325 1.827,-0.096 2.429,0 2.338,-0.213 2.345,-0.524 2.354,-0.835 2.678,-2.018 2.828,-3.645 2.656,-5.087 2.492,-5.25 2.441,-5.529 2.354,-5.77 2.043,-6.092 1.872,-6.555 1.518,-6.832 1.423,-7.068 1.268,-7.24 1.063,-7.365 0.947,-7.578 0.857,-7.817 0.606,-7.896 c -0.297,-0.163 -0.577,-0.01 -0.834,0.077 -0.446,-0.162 -0.904,-0.312 -1.214,-0.608 -0.817,0.096 -1.649,0.175 -2.43,0.304 -0.242,0.139 -0.487,0.273 -0.835,0.305 -0.227,0.204 -0.496,0.364 -0.836,0.455 -0.101,0.127 -0.337,0.118 -0.455,0.228 -0.198,0.03 -0.229,0.227 -0.456,0.229 -0.118,0.412 -0.442,0.618 -0.531,1.061 -0.226,0.331 -0.308,0.805 -0.455,1.215 -0.043,1.434 0.091,2.692 0.379,3.796 0.346,0.591 0.779,1.094 1.138,1.67 0.249,-0.021 0.365,0.09 0.38,0.304 0.306,-0.053 0.434,0.072 0.684,0.075 0.255,0.074 0.266,0.391 0.456,0.531 M 8.578,-4.479 C 8.565,-2.084 8.234,0.31 8.275,2.656 8.252,3.444 8.189,4.191 8.123,4.935 8.018,5.234 8.012,5.634 7.971,5.997 7.711,6.167 7.749,6.637 7.515,6.833 7.092,7.066 6.313,6.946 5.771,7.06 5.113,7.086 4.517,7.175 3.871,7.212 1.936,7.313 -0.102,7.288 -2.125,7.288 c -2.001,0 -3.954,0.145 -5.695,0.379 h -2.202 c -0.097,-0.004 -0.105,-0.098 -0.227,-0.076 -0.599,-0.034 -1.077,-0.188 -1.595,-0.303 -0.21,-0.119 -0.421,-0.236 -0.683,-0.305 -0.136,-0.192 -0.513,-0.144 -0.607,-0.379 -0.186,-0.211 0.185,-0.451 0,-0.607 V 5.086 c 0.174,-0.13 0.028,-0.58 0.075,-0.835 V 3.264 c -0.016,-1.281 0.134,-2.398 0.077,-3.72 0.467,-2.762 0.374,-6.537 0.076,-9.413 0.155,-0.579 0.363,-1.106 0.455,-1.746 0.256,-0.479 0.335,-1.133 0.683,-1.52 0.502,-0.206 1.233,-0.185 1.898,-0.228 0.383,-0.098 0.667,-0.293 1.14,-0.304 2.843,0.21 5.496,0.154 8.426,0.229 2.704,-0.241 5.802,-0.189 8.276,0.227 0.195,0.134 0.128,0.529 0.227,0.76 -0.055,0.385 0.207,0.449 0.228,0.759 0.133,2.392 0.165,4.787 0.151,7.213"/></g></g></g></g></symbol><symbol id="icon-twitter"><g clip-path="url(#a)" transform="matrix(1.33333 0 0 -1.33333 0 26.89)"><path d="M14.857 14.602c.163-.135.284-.31.52-.37.1-.222.313-.328.592-.37.047.15.346.048.37.221.174.023.166.23.296.297-.017.55-.129 1.006-.37 1.333-.758.424-1.676-.038-1.408-1.11m5.483 3.037c-.129-.34-.23-.707-.592-.815-.017.105-.122.125-.148.222-.012.21.21.185.296.296.163.085.245.248.444.297-.006.09.11.046 0 0m-.295-5.632c-.154-.858-.616-1.41-1.039-2 .06-.38-.103-.538-.073-.888a4.327 4.327 0 01-.37-1.038c-.204-.267-.333-.607-.519-.89-.367-.548-.778-1.05-1.186-1.557-.378-.558-.912-.965-1.334-1.48-.42-.494-.942-.886-1.407-1.335a4.967 4.967 0 01-1.26-.667 5.06 5.06 0 01-.667-.296c-.177-.146-.499-.145-.668-.297-1.086-.147-2.3-.17-3.555-.148-1.03.105-2.115.16-3.039.371-.923.19-1.51.712-2.297 1.037.153.242.634.154.963.221.031.166.394.003.444.15.257-.06.285.11.52.073.563.201 1.23.302 1.704.593.282.138.406.433.667.593.033.19.103.34.221.444.048.275.202.441.15.815.11.21.298.343.295.667-.074.148-.128.317-.296.372-.026.196-.378.067-.444.221-.255-.032-.416.03-.593.075-.154.043-.487-.09-.519.074-.842.023-1.3.43-1.853.74.431.262 1.032.352 1.334.742.516.076 1.057.13 1.112.666 0 .717-.77.661-1.333.815-.774.661-1.195 1.672-1.779 2.52.238.157.564.226.74.444.455-.057.54.251.667.52.02.488-.332.605-.592.815a3.47 3.47 0 00-.667.741c-.003.818-.022 1.651.074 2.371.063.014.07-.029.074-.074.226-.44.56-.775.815-1.186.532-.357.925-.853 1.556-1.11.452-.414 1.11-.623 1.557-1.039.6-.263 1.158-.57 1.704-.889.67-.195 1.056-.673 2.001-.593.198.098.393.2.593.297.257.456-.059 1.08.147 1.63.255.66.797 1.031 1.26 1.482.29.155.555.335.815.52.347.096.675.215.964.37.376.018.713.077 1.037.147h1.26c.244-.052.475-.119.74-.148.21-.137.38-.313.666-.37.79-.694 1.271-1.696 1.41-3.039-.124-.485.051-.874 0-1.482m3.408 4.075c-.227.367-.909.278-1.408.372h-1.112c.142.352.343.646.52.963.055.438.254.734.222 1.26.13.166.176.416.296.592.104.145.242.478.074.667-.05.221-.294.248-.592.222a.506.506 0 01-.222-.148c-.448-.433-.778-1.013-1.26-1.408-.01-.008-.062.001-.075 0-.087-.004-.033-.046-.075-.074-.147-.097-.257-.152-.369-.222-.284-.177-.547-.445-.89-.519-.53.211-1.157.326-1.852.37-1.158-.102-2.303-.215-3.039-.74-.91-.35-1.476-1.043-2.149-1.63-.049-.32-.342-.399-.37-.742-.005-.045-.012-.088-.073-.074.043-.24-.05-.345-.075-.518 0-.133.2-.432 0-.52-.822.12-1.485.63-2.149.964-.718.36-1.468.603-2.074 1.111-.716.322-1.26.816-1.778 1.334-.209.311-.542.495-.668.89-.379.164-.175.912-.74.89-.316.042-.345-.2-.445-.372-.07-.226-.36-.232-.37-.518-.005-.046-.012-.089-.075-.075-.17-1.089-.528-1.992-.519-3.26.13-.415.35-.738.593-1.038-.418-.05-.716-.222-.89-.519-.059-1.073.378-1.647.742-2.297.134-.383.351-.684.593-.963.017-.229.206-.288.296-.445.018-.105.122-.125.15-.222-.042-.106.287-.18.072-.22-.413-.132-1.016-.07-1.26-.372-.109-.28-.109-.833 0-1.112.034-.237.283-.26.297-.518.5-.417 1.081-.747 1.631-1.112.574-.166 1.211-.27 1.852-.37-.102-.343-.338-.55-.593-.742-.78-.38-1.849-.473-2.742-.74-.555-.038-.956-.23-1.556-.223C1.04 3.878.518 3.93.26 3.783c-.12-.069-.1-.096-.222-.22-.134-.413.111-.74.444-.89-.005-.254.22-.277.371-.372.09-.182.254-.29.445-.37.544-.468 1.268-.759 1.927-1.112C4.054.636 4.872.443 5.744.3c.895-.116 1.9-.124 2.815-.22h.963c.511-.133 1.231-.055 1.853-.076.094.102.322.074.518.075.523.268 1.196.384 1.631.74.574.241.99.641 1.557.89.866.764 1.936 1.324 2.518 2.372.205.19.351.438.446.74.264.156.384.454.592.667.405.41.706.924 1.037 1.408.32.496.577 1.054.89 1.556-.01.405.306.484.296.89.193.225.177.661.371.888-.033.255.03.415.074.594.047 1.281-.047 2.422-.297 3.407.588.155 1.181.302 1.631.593.526.185.998.582.814 1.26" fill="#231f20"/></g></symbol></svg>